<?xml version="1.0" encoding="UTF-8" standalone="no"?>
<!-- Generator: Adobe Illustrator 19.0.0, SVG Export Plug-In . SVG Version: 6.00 Build 0)  -->

<svg
   xmlns:dc="http://purl.org/dc/elements/1.1/"
   xmlns:cc="http://creativecommons.org/ns#"
   xmlns:rdf="http://www.w3.org/1999/02/22-rdf-syntax-ns#"
   xmlns:svg="http://www.w3.org/2000/svg"
   xmlns="http://www.w3.org/2000/svg"
   xmlns:sodipodi="http://sodipodi.sourceforge.net/DTD/sodipodi-0.dtd"
   xmlns:inkscape="http://www.inkscape.org/namespaces/inkscape"
   version="1.1"
   id="Layer_1"
   x="0px"
   y="0px"
   viewBox="0 0 473.654 473.654"
   style="enable-background:new 0 0 473.654 473.654;"
   xml:space="preserve"
   sodipodi:docname="call.svg"
   inkscape:version="0.92.5 (2060ec1f9f, 2020-04-08)"><metadata
   id="metadata946"><rdf:RDF><cc:Work
       rdf:about=""><dc:format>image/svg+xml</dc:format><dc:type
         rdf:resource="http://purl.org/dc/dcmitype/StillImage" /><dc:title></dc:title></cc:Work></rdf:RDF></metadata><defs
   id="defs944" /><sodipodi:namedview
   pagecolor="#ffffff"
   bordercolor="#666666"
   borderopacity="1"
   objecttolerance="10"
   gridtolerance="10"
   guidetolerance="10"
   inkscape:pageopacity="0"
   inkscape:pageshadow="2"
   inkscape:window-width="1366"
   inkscape:window-height="707"
   id="namedview942"
   showgrid="false"
   inkscape:zoom="1.1041816"
   inkscape:cx="236.827"
   inkscape:cy="236.827"
   inkscape:window-x="0"
   inkscape:window-y="25"
   inkscape:window-maximized="1"
   inkscape:current-layer="Layer_1" />
<path
   style="fill:#ffffff"
   d="M 236.82617 0 A 236.827 236.827 0 0 0 0 236.82617 A 236.827 236.827 0 0 0 236.82617 473.6543 A 236.827 236.827 0 0 0 473.6543 236.82617 A 236.827 236.827 0 0 0 236.82617 0 z M 142.94922 87.859375 C 155.4986 87.565375 170.51109 93.815234 187.62891 112.62305 C 204.74891 131.43305 216.34792 149.50698 199.91992 171.70898 C 183.39092 194.04598 165.04492 196.4082 165.04492 196.4082 C 165.04492 196.4082 129.86258 194.31119 206.14258 279.11719 C 290.91158 355.35219 288.81445 320.18555 288.81445 320.18555 C 288.81445 320.18555 291.17767 301.83955 313.51367 285.31055 C 335.71967 268.88355 354.2717 279.9707 372.5957 297.5957 C 433.6407 356.3337 364.38463 385.57612 364.39062 385.57812 C 299.14662 424.35413 221.59786 359.76748 175.38086 309.89648 C 125.50986 263.68348 60.863484 186.10603 99.646484 120.83203 C 99.646484 120.83203 115.34057 88.506176 142.94922 87.859375 z "
   id="circle905" />

<path
   style="fill:#404040;"
   d="M129.991,90.595c-0.045,0.015-0.067,0.052-0.108,0.071c0.49-0.206,0.995-0.389,1.488-0.572  C130.911,90.262,130.444,90.415,129.991,90.595z"
   id="path909" />
<g
   id="g911">
</g>
<g
   id="g913">
</g>
<g
   id="g915">
</g>
<g
   id="g917">
</g>
<g
   id="g919">
</g>
<g
   id="g921">
</g>
<g
   id="g923">
</g>
<g
   id="g925">
</g>
<g
   id="g927">
</g>
<g
   id="g929">
</g>
<g
   id="g931">
</g>
<g
   id="g933">
</g>
<g
   id="g935">
</g>
<g
   id="g937">
</g>
<g
   id="g939">
</g>
</svg>