<svg xmlns:dc="http://purl.org/dc/elements/1.1/" xmlns:cc="http://creativecommons.org/ns#" xmlns:rdf="http://www.w3.org/1999/02/22-rdf-syntax-ns#" xmlns:svg="http://www.w3.org/2000/svg" xmlns="http://www.w3.org/2000/svg" xmlns:sodipodi="http://sodipodi.sourceforge.net/DTD/sodipodi-0.dtd" xmlns:inkscape="http://www.inkscape.org/namespaces/inkscape" id="Layer_1" data-name="Layer 1" viewBox="0 0 512 512" version="1.1" sodipodi:docname="Eletrica-08.svg" width="512" height="512" inkscape:version="0.92.4 (f8dce91, 2019-08-02)">
  <metadata id="metadata23">
    <rdf:rdf>
      <cc:work rdf:about="">
        <dc:format>image/svg+xml</dc:format>
        <dc:type rdf:resource="http://purl.org/dc/dcmitype/StillImage"></dc:type>
      </cc:work>
    </rdf:rdf>
  </metadata>
  <sodipodi:namedview pagecolor="#ffffff" bordercolor="#666666" borderopacity="1" objecttolerance="10" gridtolerance="10" guidetolerance="10" inkscape:pageopacity="0" inkscape:pageshadow="2" inkscape:window-width="772" inkscape:window-height="480" id="namedview21" showgrid="false" inkscape:zoom="0.4609375" inkscape:cx="256.00001" inkscape:cy="256" inkscape:window-x="64" inkscape:window-y="27" inkscape:window-maximized="0" inkscape:current-layer="Layer_1"></sodipodi:namedview>
  <defs id="defs4">
    <style id="style2">.cls-1{fill:#fff;}</style>
  </defs>
  <path class="cls-1" d="m 503.47001,170.67 a 8.53,8.53 0 0 0 8.53,-8.54 v -51.2 a 8.53,8.53 0 0 0 -8.53,-8.53 h -34.14 V 59.73 a 8.53,8.53 0 0 0 -8.53,-8.53 h -51.2 a 8.53,8.53 0 0 0 -8.53,8.53 v 42.67 h -34.14 V 25.6 a 25.6,25.6 0 0 0 -25.6,-25.6 h -170.66 a 25.6,25.6 0 0 0 -25.6,25.6 v 76.8 h -34.14 V 59.73 a 8.53,8.53 0 0 0 -8.53,-8.53 H 51.200006 a 8.53,8.53 0 0 0 -8.53,8.53 V 102.4 H 8.5300059 A 8.53,8.53 0 0 0 5.8616667e-6,110.93 v 51.2 A 8.53,8.53 0 0 0 8.5300059,170.67 H 17.070006 V 443.73 H 8.5300059 A 8.53,8.53 0 0 0 5.8616667e-6,452.27 v 51.2 A 8.53,8.53 0 0 0 8.5300059,512 H 503.47001 a 8.53,8.53 0 0 0 8.53,-8.53 v -51.2 a 8.53,8.53 0 0 0 -8.53,-8.54 h -8.54 V 170.67 Z m -85.34,-102.4 h 34.14 v 34.13 h -34.14 z m -256,-42.67 a 8.53,8.53 0 0 1 8.54,-8.53 h 170.66 a 8.53,8.53 0 0 1 8.54,8.53 v 76.8 h -17.07 V 42.67 a 8.53,8.53 0 0 0 -8.53,-8.54 h -136.54 a 8.53,8.53 0 0 0 -8.53,8.54 v 59.73 h -17.07 z m 153.6,25.6 v 51.2 h -119.46 V 51.2 Z M 59.730006,68.27 h 34.14 v 34.13 h -34.14 z M 494.93001,494.93 H 17.070006 V 460.8 H 494.93001 Z M 34.130006,443.73 V 170.67 H 477.87001 v 273.06 z m -17.06,-290.13 V 119.47 H 494.93001 v 34.13 z" id="path8" inkscape:connector-curvature="0" style="fill:#ffffff"></path>
  <path class="cls-1" d="M 238.93001,221.87 V 204.8 H 76.800006 a 8.53,8.53 0 0 0 -8.53,8.53 v 187.74 a 8.53,8.53 0 0 0 8.53,8.53 H 187.73001 V 392.53 H 85.330006 V 221.87 Z" id="path10" inkscape:connector-curvature="0" style="fill:#ffffff"></path>
  <path class="cls-1" d="m 435.20001,204.8 h -110.93 v 17.07 h 102.4 v 170.66 h -145.07 v 17.07 h 153.6 a 8.53,8.53 0 0 0 8.53,-8.53 V 213.33 a 8.53,8.53 0 0 0 -8.53,-8.53 z" id="path12" inkscape:connector-curvature="0" style="fill:#ffffff"></path>
  <path class="cls-1" d="m 340.68001,295.4 a 8.53,8.53 0 0 0 -7.88,-5.27 h -48.8 l 22.94,-91.8 a 8.53,8.53 0 0 0 -14.31,-8.1 l -119.46,119.47 a 8.54,8.54 0 0 0 6,14.57 l 48.92,0.58 -23,91.2 a 8.53,8.53 0 0 0 14.31,8.12 l 119.43,-119.47 a 8.52,8.52 0 0 0 1.85,-9.3 z m -111.53,94.84 18.06,-71.68 a 8.53,8.53 0 0 0 -6.21,-10.36 8.89,8.89 0 0 0 -2,-0.26 l -39.48,-0.47 83.35,-83.35 -18.12,72.53 a 8.54,8.54 0 0 0 6.32,10.35 8.36,8.36 0 0 0 2,0.24 h 39.13 z" id="path14" inkscape:connector-curvature="0" style="fill:#ffffff"></path>
  <polygon class="cls-1" points="119.47,238.93 119.47,256 102.4,256 102.4,273.07 119.47,273.07 119.47,290.13 136.53,290.13 136.53,273.07 153.6,273.07 153.6,256 136.53,256 136.53,238.93 " id="polygon16" style="fill:#ffffff" transform="translate(5.8616667e-6)"></polygon>
  <rect class="cls-1" x="358.39999" y="256" width="51.200001" height="17.07" id="rect18" style="fill:#ffffff"></rect>
</svg>