<svg xmlns:dc="http://purl.org/dc/elements/1.1/" xmlns:cc="http://creativecommons.org/ns#" xmlns:rdf="http://www.w3.org/1999/02/22-rdf-syntax-ns#" xmlns:svg="http://www.w3.org/2000/svg" xmlns="http://www.w3.org/2000/svg" xmlns:sodipodi="http://sodipodi.sourceforge.net/DTD/sodipodi-0.dtd" xmlns:inkscape="http://www.inkscape.org/namespaces/inkscape" version="1.1" id="Layer_1" x="0px" y="0px" viewBox="0 0 511.87967 511.95581" xml:space="preserve" sodipodi:docname="ferramentas.svg" width="511.87967" height="511.95581" inkscape:version="0.92.4 (f8dce91, 2019-08-02)"><metadata id="metadata15"><rdf:rdf><cc:work rdf:about=""><dc:format>image/svg+xml</dc:format><dc:type rdf:resource="http://purl.org/dc/dcmitype/StillImage"></dc:type></cc:work></rdf:rdf></metadata><defs id="defs13"></defs><sodipodi:namedview pagecolor="#ffffff" bordercolor="#666666" borderopacity="1" objecttolerance="10" gridtolerance="10" guidetolerance="10" inkscape:pageopacity="0" inkscape:pageshadow="2" inkscape:window-width="772" inkscape:window-height="480" id="namedview11" showgrid="false" inkscape:zoom="0.4609375" inkscape:cx="255.9" inkscape:cy="256" inkscape:window-x="64" inkscape:window-y="27" inkscape:window-maximized="0" inkscape:current-layer="Layer_1"></sodipodi:namedview>
<style type="text/css" id="style2">
	.st0{fill:#FFFFFF;}
</style>
<g transform="translate(0.9,0.9558057)" id="g8">
	<g id="g6">
		<path class="st0" d="M 481.8,385.6 C 471.2,378.1 458.9,374.1 446.5,373.4 399.8,342.8 369.2,319.8 351.3,302 l -54.9,-54.9 33.3,-37.3 c 6.3,3.6 13.1,5.9 19.9,6.9 5.1,0.9 8.5,0.9 11.9,0.9 6.8,0 8.5,0 15.4,6 -3.4,2.6 -5.1,6.8 -5.1,11.1 0,4.3 1.7,9.4 5.1,12.8 l 29.9,29.9 c 4.3,5.1 11.1,7.7 17.9,7.7 6.8,0 13.6,-2.6 17.9,-8.5 L 503.2,216 c 5.1,-4.3 7.7,-11.1 7.7,-17.9 0,-6.8 -2.6,-12.8 -7.7,-17.9 l -29.9,-29.9 c -3.4,-3.4 -7.7,-5.1 -11.9,-5.1 -4.3,0 -8.5,2.6 -11.9,5.1 -6.8,-6 -6.8,-7.7 -6.8,-14.5 0,-3.4 0,-7.7 -1.7,-12.8 -1.7,-11.9 -7.7,-23.9 -17.1,-33.3 L 393.1,59 C 375.2,41.1 366.7,32.6 343.6,22.3 294.1,-0.7 243.8,3.5 170.5,36.8 c -4.3,1.7 -6,5.1 -5.1,9.4 0.9,4.3 4.3,6.8 8.5,6.8 H 185 c 37.5,0 57.1,0 91.3,34.1 14.9,14.9 15.4,37.8 2,54.7 -1.8,0.3 -3.2,1.1 -4.5,2.4 l -37.9,42.3 -28.6,-28.6 C 175.8,126.4 153.7,96.6 136.6,63.5 135.7,46.7 129,31 116.9,18.9 102.3,4.4 81.8,-2.4 61.3,-0.7 c -2.6,0.9 -5.1,2.6 -6,4.3 -1.7,2.6 -1.7,6 0,8.5 l 23.9,42.6 c -5.1,11.1 -17.1,17.9 -29,17.1 l -24.7,-41 c -0.9,-2.6 -4.3,-4.3 -6.8,-4.3 -2.6,-0.9 -5.1,0.9 -6.8,3.4 -20.5,30.7 -12.8,71.6 17.9,93 10.6,7.6 22.5,11.8 34.6,12.6 0.1,0.1 0.3,0.1 0.4,0.2 33.3,17.1 63.1,39.2 94.7,70.8 L 190.7,237 9.3,439.4 c -6.8,6.8 -10.2,16.2 -10.2,25.6 0,9.4 3.4,17.9 10.2,24.7 l 11.9,11.9 c 6.8,6 15.4,9.4 23.9,9.4 8.5,0 17.9,-3.4 24.7,-10.2 L 251,298.1 l 52.6,52.6 c 17.9,17.9 40.9,49.4 71.6,95.4 1.1,16.4 7.8,31.7 19.7,43.6 12.8,12.8 29.9,19.6 47.8,19.6 2.6,0 5.1,0 6.8,0 2.6,0 5.1,-1.7 6.8,-4.3 1.7,-2.6 1.7,-6 0,-8.5 l -24.7,-41.8 c 6,-11.1 17.1,-17.9 29.9,-17.1 l 23.9,40.9 c 0.9,2.6 4.3,4.3 6.8,4.3 3.4,-0.9 6,-1.7 7.7,-4.3 20.3,-30.6 11.8,-71.6 -18.1,-92.9 z M 287.4,73.5 C 260.1,47.1 239.6,38.5 216.6,36 265.2,20.6 301,21.5 336.9,37.7 c 20.5,8.5 27.3,15.4 45.2,33.3 l 30.7,30.7 c 6.8,6.8 11.1,15.4 11.9,23.9 0.9,4.3 0.9,7.7 0.9,10.2 0,9.4 0.9,16.2 11.1,26.4 3.4,3.4 8.5,5.1 12.8,5.1 5.1,0 9.4,-1.7 11.9,-5.1 l 29.9,29.9 c 1.7,1.7 2.6,3.4 2.6,6 0,2.6 -0.9,4.3 -2.6,6 l -60.6,60.6 c -3.4,3.4 -8.5,3.4 -11.9,0 l -29.9,-29.9 c 3.4,-2.6 5.1,-6.8 4.3,-11.9 0,-4.3 -1.7,-9.4 -5.1,-12.8 C 377.9,199.9 371,199 361.7,199 c -2.6,0 -6,0 -10.2,-0.9 -9.4,-0.9 -17.1,-5.1 -23.9,-11.9 l -36.7,-36.7 c 18.6,-23.2 16.9,-55.6 -3.5,-76 z M 19.5,53 37.4,83.7 c 1.7,2.6 4.3,4.3 6.8,4.3 h 4.3 C 68.1,88.9 86,78.6 94.6,61.6 l 1.7,-4.3 c 1.7,-2.6 1.7,-5.1 0,-7.7 L 77.5,17.2 c 10.2,1.7 19.6,6.8 27.3,14.5 8.8,9.5 14.4,21.6 14.8,34.5 -0.2,0.7 -0.3,1.4 -0.3,2.2 0,4 -0.5,7.8 -1.4,11.5 C 114.7,92.2 107,103 96.2,110.2 79.1,121.3 56.1,121.3 39.1,109.3 21.2,96.5 13.6,73.5 19.5,53 Z m 151.9,141.6 c -25.6,-26.4 -51.2,-46.9 -78.5,-63.1 4.3,-1.7 9.4,-4.3 13.6,-6.8 12.8,-8.5 21.3,-19.6 26.4,-33.3 16.2,27.3 36.7,52.9 62.3,78.5 l 29.3,29.3 -23,25.6 z M 57.9,488 c -6.8,6.8 -17.9,7.7 -24.7,0.9 L 21.3,477.8 c -3.4,-3.4 -5.1,-7.7 -5.1,-11.9 0,-5.1 1.7,-9.4 6,-13.6 L 27,446.9 39.2,459 c 1.7,1.7 3.4,2.6 6,2.6 2.6,0 4.3,-0.9 6,-2.6 3.4,-3.4 3.4,-8.5 0,-11.9 L 38.3,434.2 49.6,421.6 63,435.1 c 1.7,1.7 3.4,2.6 6,2.6 2.6,0 4.3,-0.9 6,-2.6 3.4,-3.4 3.4,-8.5 0,-11.9 L 60.8,409 280.2,163.6 316,199.4 280.8,238.8 c -1,0.4 -1.9,1.1 -2.8,2 L 243.9,279 c -1,1 -1.7,2.1 -2.1,3.3 z M 262.6,285 285.9,258.9 341,314 c 15.4,16.2 41.8,36.7 80.2,62.3 -5.1,1.7 -10.2,4.3 -15.4,7.7 -10.6,6.6 -18.1,15.8 -23.3,25.9 -0.1,0.1 -0.1,0.3 -0.2,0.4 -0.3,0.6 -0.6,1.2 -0.9,1.8 -0.4,0.9 -0.8,1.8 -1.2,2.7 -0.3,0.6 -0.5,1.2 -0.8,1.8 0,0.1 -0.1,0.2 -0.1,0.3 -0.3,0.7 -0.5,1.3 -0.8,2 -4.8,-7.1 -9.5,-13.8 -14,-20.1 l 11.4,-11.4 c 3.4,-3.4 3.4,-8.5 0,-11.9 -3.4,-3.4 -8.5,-3.4 -11.9,0 l -9.5,9.5 c -3.5,-4.8 -7,-9.3 -10.3,-13.6 l 7.8,-7.8 c 3.4,-3.4 3.4,-8.5 0,-11.9 -3.4,-3.4 -8.5,-3.4 -11.9,0 l -6.5,6.5 c -6.3,-7.6 -12.1,-14 -17.4,-19.3 z m 228.6,170.6 -17.9,-30.7 c -1.7,-2.6 -4.3,-4.3 -6.8,-4.3 h -4.3 c -19.6,-1.7 -37.5,9.4 -46.1,26.4 l -1.7,4.3 c -1.7,2.6 -1.7,5.1 0,7.7 l 18.8,32.4 c -10.2,-1.7 -19.6,-6.8 -27.3,-14.5 -8.6,-9.3 -14.2,-21.1 -14.7,-33.8 0.1,-0.6 0.2,-1.3 0.2,-2 0,-10.8 3.4,-20.9 9.4,-29.5 3.7,-5.1 8.3,-9.6 13.6,-13.2 8.5,-6 17.9,-8.5 28.1,-8.5 10.2,0 20.5,3.4 29,9.4 18,12.8 25.7,35.8 19.7,56.3 z" id="path4" inkscape:connector-curvature="0" style="fill:#ffffff"></path>
	</g>
</g>
</svg>