<svg xmlns:dc="http://purl.org/dc/elements/1.1/" xmlns:cc="http://creativecommons.org/ns#" xmlns:rdf="http://www.w3.org/1999/02/22-rdf-syntax-ns#" xmlns:svg="http://www.w3.org/2000/svg" xmlns="http://www.w3.org/2000/svg" version="1.1" viewBox="0 0 512 512" data-name="Layer 1" id="Layer_1">
  <metadata id="metadata49">
    <rdf:rdf>
      <cc:work rdf:about="">
        <dc:format>image/svg+xml</dc:format>
        <dc:type rdf:resource="http://purl.org/dc/dcmitype/StillImage"></dc:type>
      </cc:work>
    </rdf:rdf>
  </metadata>
  <defs id="defs4">
    <style id="style2">.cls-1{fill:#fff;}.cls-2{fill:none;stroke:#fff;stroke-miterlimit:10;stroke-width:17px;}</style>
  </defs>
  <path id="path8" d="M413.38,331.58a6.65,6.65,0,0,1-6.28-8.81,6.64,6.64,0,1,1,6.28,8.81Z" class="cls-1"></path>
  <path id="path10" d="M393.35,200.41a6.66,6.66,0,0,1-6.58-7.65,6.66,6.66,0,0,1,11.94-2.93,6.65,6.65,0,0,1-5.36,10.58Z" class="cls-1"></path>
  <path id="path12" d="M419.51,263.53a6.64,6.64,0,0,1-1-13.21,7.15,7.15,0,0,1,1-.08,6.66,6.66,0,0,1,6.54,5.64,6.51,6.51,0,0,1-1.2,4.93,6.64,6.64,0,0,1-4.36,2.65A7.88,7.88,0,0,1,419.51,263.53Z" class="cls-1"></path>
  <path id="path14" d="M248.56,424.75a7,7,0,0,1-1.45-.16,6.64,6.64,0,1,1,1.45.16Z" class="cls-1"></path>
  <path id="path16" d="M316.83,422.59a6.68,6.68,0,0,1-6.39-4.86,6.65,6.65,0,0,1,4.61-8.19,6.84,6.84,0,0,1,1.79-.25,6.67,6.67,0,0,1,6.4,4.86,6.65,6.65,0,0,1-4.6,8.2A7.37,7.37,0,0,1,316.83,422.59Z" class="cls-1"></path>
  <path id="path18" d="M376.35,389a6.58,6.58,0,0,1-4.84-2.09,6.64,6.64,0,0,1,4.83-11.2,6.66,6.66,0,0,1,6.66,6.84,6.66,6.66,0,0,1-6.65,6.45Z" class="cls-1"></path>
  <path id="path20" d="M187.07,394.9a6.63,6.63,0,0,1-4.23-1.54A6.66,6.66,0,0,1,182,384a6.64,6.64,0,0,1,5.12-2.41,6.55,6.55,0,0,1,4.25,1.54,6.65,6.65,0,0,1-4.26,11.76Z" class="cls-1"></path>
  <path id="path22" d="M340.81,156.72a6.46,6.46,0,0,1-2.87-.66h0l-.22-.11A6.65,6.65,0,0,1,343.58,144l-1-.66,1.29.8.35.14-.35-.14.16.07c-.09,0-.19-.07-.28-.12a6.67,6.67,0,0,1,3,8.87A6.6,6.6,0,0,1,340.81,156.72Z" class="cls-1"></path>
  <path id="path24" d="M146.56,339.9a6.65,6.65,0,1,1,2.54-.51A6.55,6.55,0,0,1,146.56,339.9Z" class="cls-1"></path>
  <path id="path26" d="M136.16,272.36a4.61,4.61,0,0,1-.52,0,6.69,6.69,0,0,1-4.59-2.37,6.55,6.55,0,0,1-1.51-4.84,6.68,6.68,0,0,1,6.6-6.06c.2,0,.4,0,.6,0a6.65,6.65,0,0,1-.58,13.27Z" class="cls-1"></path>
  <path id="path28" d="M273.92,142.39h-.08a6.65,6.65,0,0,1-.2-13.3h.22a6.65,6.65,0,0,1,.21,13.29Z" class="cls-1"></path>
  <path id="path30" d="M278,510h0a234,234,0,0,0,110.14-27.65A231.59,231.59,0,0,0,295.9,47.51l-1.69-.12-.15-1.69A43.2,43.2,0,0,0,291.76,35,42.32,42.32,0,0,0,256,6.85L213.65,2.42a75.47,75.47,0,0,0-8-.42,74.65,74.65,0,0,0-53.13,22.06L24,152.64A75,75,0,0,0,2.34,213.72l4.44,42.34A42.32,42.32,0,0,0,35,291.83a43.34,43.34,0,0,0,10.67,2.33l1.69.15.13,1.69A231.55,231.55,0,0,0,154.16,473.93,230.47,230.47,0,0,0,278,510ZM79.3,283.06l3.19-2.93L280,82.59l2.94-3.2a42.4,42.4,0,0,0,7.87-12.18l.55-1.3,1.41.09A212.95,212.95,0,0,1,458.09,392.68c-39.27,61.77-106.57,98.65-180,98.65A212.81,212.81,0,0,1,66,292.86l-.1-1.41,1.3-.55A42.45,42.45,0,0,0,79.3,283.06ZM205.73,19.29a59.73,59.73,0,0,1,6.12.32l42.34,4.44a24.85,24.85,0,0,1,21.27,16.76,24.86,24.86,0,0,1-6,26.41L67.15,269.56a25,25,0,0,1-17.73,7.49,25.85,25.85,0,0,1-8.68-1.52A24.85,24.85,0,0,1,24,254.26l-4.44-42.34a57.73,57.73,0,0,1,16.67-47L164.8,36.28A57.49,57.49,0,0,1,205.73,19.29Z" class="cls-1"></path>
  <path id="path32" d="M79.54,212.87A23.52,23.52,0,1,1,96.18,206,23.33,23.33,0,0,1,79.54,212.87Zm0-33.76a10.24,10.24,0,1,0,7.24,3A10.17,10.17,0,0,0,79.54,179.11Z" class="cls-1"></path>
  <path id="path34" d="M189.28,103.14a23.52,23.52,0,1,1,16.63-6.89A23.38,23.38,0,0,1,189.28,103.14Zm0-33.76a10.24,10.24,0,1,0,7.23,3A10.13,10.13,0,0,0,189.28,69.38Z" class="cls-1"></path>
  <path id="path36" d="M278.18,381.37a103.21,103.21,0,1,1,22.58-2.5A103.89,103.89,0,0,1,278.18,381.37Zm.34-192.48a89.6,89.6,0,0,0-.3,179.19h0a90.75,90.75,0,0,0,19.65-2.18,89.57,89.57,0,0,0-19.35-177Z" class="cls-1"></path>
  <path id="path38" d="M278.24,347.67A69.41,69.41,0,1,1,293.43,346,70.35,70.35,0,0,1,278.24,347.67Zm.23-125.09a55.9,55.9,0,0,0-.19,111.79h0A56.42,56.42,0,0,0,290.54,333a55.88,55.88,0,0,0-12.07-110.44Z" class="cls-1"></path>
  <circle id="circle40" r="8.37" cy="154.88" cx="209.14" class="cls-1"></circle>
  <circle id="circle42" r="8.37" cy="202.43" cx="160.59" class="cls-1"></circle>
  <path id="path44" d="M248.48,100.93a176.8,176.8,0,0,1,25.37-1.83A174.81,174.81,0,1,1,99.05,273.91a176.76,176.76,0,0,1,2.07-27" class="cls-2"></path>
</svg>