<svg xmlns:dc="http://purl.org/dc/elements/1.1/" xmlns:cc="http://creativecommons.org/ns#" xmlns:rdf="http://www.w3.org/1999/02/22-rdf-syntax-ns#" xmlns:svg="http://www.w3.org/2000/svg" xmlns="http://www.w3.org/2000/svg" xmlns:sodipodi="http://sodipodi.sourceforge.net/DTD/sodipodi-0.dtd" xmlns:inkscape="http://www.inkscape.org/namespaces/inkscape" id="Layer_1" data-name="Layer 1" viewBox="0 0 486.8396 465.32773" version="1.1" sodipodi:docname="Ignição.svg" width="486.8396" height="465.32773" inkscape:version="0.92.4 (f8dce91, 2019-08-02)">
  <metadata id="metadata45">
    <rdf:rdf>
      <cc:work rdf:about="">
        <dc:format>image/svg+xml</dc:format>
        <dc:type rdf:resource="http://purl.org/dc/dcmitype/StillImage"></dc:type>
      </cc:work>
    </rdf:rdf>
  </metadata>
  <sodipodi:namedview pagecolor="#ffffff" bordercolor="#666666" borderopacity="1" objecttolerance="10" gridtolerance="10" guidetolerance="10" inkscape:pageopacity="0" inkscape:pageshadow="2" inkscape:window-width="772" inkscape:window-height="480" id="namedview43" showgrid="false" inkscape:zoom="0.4609375" inkscape:cx="247.73524" inkscape:cy="221.87761" inkscape:window-x="64" inkscape:window-y="27" inkscape:window-maximized="0" inkscape:current-layer="Layer_1"></sodipodi:namedview>
  <defs id="defs4">
    <style id="style2">.cls-1,.cls-2,.cls-3{fill:none;stroke:#fff;stroke-linecap:round;stroke-linejoin:round;}.cls-1{stroke-width:10px;}.cls-2{stroke-width:16px;}.cls-3{stroke-width:12px;}</style>
  </defs>
  <path class="cls-1" d="m 302.39626,262.87265 a 3.79,3.79 0 0 1 -2.68,-6.46 l 114.35,-114.34 a 15.16,15.16 0 0 0 3.42,-16.14 l -8.67,-22.55 -31,-30.999999 -22.52,-8.63 a 15.1,15.1 0 0 0 -16.12,3.42 l -114.35,114.349999 a 3.7830213,3.7830213 0 1 1 -5.35,-5.35 l 114.35,-114.349999 a 22.66,22.66 0 0 1 24.19,-5.13 l 23.3,9 a 3.84,3.84 0 0 1 1.32,0.85 l 32.09,32.06 a 3.81,3.81 0 0 1 0.86,1.32 l 9,23.299999 a 22.71,22.71 0 0 1 -5.13,24.2 l -114.39,114.34 a 3.76,3.76 0 0 1 -2.67,1.11 z" id="path8" inkscape:connector-curvature="0" style="fill:none;stroke:#ffffff;stroke-width:10px;stroke-linecap:round;stroke-linejoin:round"></path>
  <path class="cls-2" d="m 202.67626,366.60265 -64.35,67.12 a 29.37,29.37 0 0 1 -18.75,9.73 22.34,22.34 0 0 1 -18.34,-6.3 l -56.619999,-56.81 c -9.75,-9.78 -8,-26.44 3.61,-36.89 l 67.439999,-63.85" id="path10" inkscape:connector-curvature="0" style="fill:none;stroke:#ffffff;stroke-width:16px;stroke-linecap:round;stroke-linejoin:round"></path>
  <path class="cls-2" d="m 300.17626,318.60265 a 11.29,11.29 0 0 1 -8,-3.31 l -123,-123 a 11.36,11.36 0 0 1 0,-16.05 l 10.7,-10.7 a 11.37,11.37 0 0 1 16.05,0 l 123,123 a 11.35,11.35 0 0 1 0,16 l -10.7,10.7 a 11.31,11.31 0 0 1 -8.05,3.36 z" id="path12" inkscape:connector-curvature="0" style="fill:none;stroke:#ffffff;stroke-width:16px;stroke-linecap:round;stroke-linejoin:round"></path>
  <path class="cls-2" d="m 286.01626,313.95265 -49.62,49.65 a 18.9,18.9 0 0 1 -26.74,0 l -90.93,-91 a 19,19 0 0 1 0,-26.75 l 49.38,-49.37" id="path14" inkscape:connector-curvature="0" style="fill:none;stroke:#ffffff;stroke-width:16px;stroke-linecap:round;stroke-linejoin:round"></path>
  <path class="cls-2" d="m 422.56626,105.39265 a 16.84,16.84 0 0 0 -2,-3 l -38.69,-37.609999 -3.57,-2.7 47.46,-46.34 a 27.9,27.9 0 0 1 38.67,0 l 6.45,6.27 a 26.1,26.1 0 0 1 0,37.63 l -41.9,40.779999 c -0.86,0.83 -5.21,4.97 -6.42,4.97 z" id="path16" inkscape:connector-curvature="0" style="fill:none;stroke:#ffffff;stroke-width:16px;stroke-linecap:round;stroke-linejoin:round"></path>
  <path class="cls-2" d="m 39.216261,457.25265 -23.11,-20.11 a 22.2,22.2 0 0 1 0,-34.47 l 23.11,-20.07" id="path18" inkscape:connector-curvature="0" style="fill:none;stroke:#ffffff;stroke-width:16px;stroke-linecap:round;stroke-linejoin:round"></path>
  <path class="cls-3" d="m 53.066261,431.05265 a 3,3 0 0 1 -2.92,-3.45 l 4.19,-25.16 a 3,3 0 0 1 5,-1.61 l 21,21 a 3,3 0 0 1 -1.61,5 l -25.15,4.19 a 2.7,2.7 0 0 1 -0.51,0.03 z" id="path20" inkscape:connector-curvature="0" style="fill:none;stroke:#ffffff;stroke-width:12px;stroke-linecap:round;stroke-linejoin:round"></path>
  <line class="cls-2" x1="424.30627" y1="20.612648" x2="461.15628" y2="57.472652" id="line22" style="fill:none;stroke:#ffffff;stroke-width:16px;stroke-linecap:round;stroke-linejoin:round"></line>
  <line class="cls-2" x1="405.31628" y1="44.60265" x2="442.16626" y2="81.462654" id="line24" style="fill:none;stroke:#ffffff;stroke-width:16px;stroke-linecap:round;stroke-linejoin:round"></line>
  <line class="cls-2" x1="330.59628" y1="75.752655" x2="405.48627" y2="150.64264" id="line26" style="fill:none;stroke:#ffffff;stroke-width:16px;stroke-linecap:round;stroke-linejoin:round"></line>
  <line class="cls-2" x1="307.11627" y1="101.44265" x2="382.83627" y2="177.16264" id="line28" style="fill:none;stroke:#ffffff;stroke-width:16px;stroke-linecap:round;stroke-linejoin:round"></line>
  <line class="cls-2" x1="280.13626" y1="126.21265" x2="356.98627" y2="203.05264" id="line30" style="fill:none;stroke:#ffffff;stroke-width:16px;stroke-linecap:round;stroke-linejoin:round"></line>
  <line class="cls-2" x1="233.40625" y1="204.45265" x2="210.19626" y2="228.74265" id="line32" style="fill:none;stroke:#ffffff;stroke-width:16px;stroke-linecap:round;stroke-linejoin:round"></line>
  <line class="cls-2" x1="275.84628" y1="247.90263" x2="252.64626" y2="272.18265" id="line34" style="fill:none;stroke:#ffffff;stroke-width:16px;stroke-linecap:round;stroke-linejoin:round"></line>
  <line class="cls-2" x1="103.77626" y1="299.69266" x2="193.30626" y2="368.18265" id="line36" style="fill:none;stroke:#ffffff;stroke-width:16px;stroke-linecap:round;stroke-linejoin:round"></line>
  <line class="cls-2" x1="73.59626" y1="326.51266" x2="163.12625" y2="395.00266" id="line38" style="fill:none;stroke:#ffffff;stroke-width:16px;stroke-linecap:round;stroke-linejoin:round"></line>
  <line class="cls-2" x1="51.716259" y1="357.57266" x2="141.24626" y2="426.05267" id="line40" style="fill:none;stroke:#ffffff;stroke-width:16px;stroke-linecap:round;stroke-linejoin:round"></line>
</svg>