<svg xmlns:dc="http://purl.org/dc/elements/1.1/" xmlns:cc="http://creativecommons.org/ns#" xmlns:rdf="http://www.w3.org/1999/02/22-rdf-syntax-ns#" xmlns:svg="http://www.w3.org/2000/svg" xmlns="http://www.w3.org/2000/svg" xmlns:sodipodi="http://sodipodi.sourceforge.net/DTD/sodipodi-0.dtd" xmlns:inkscape="http://www.inkscape.org/namespaces/inkscape" version="1.1" id="Camada_1" x="0px" y="0px" viewBox="0 0 512 512.09998" xml:space="preserve" sodipodi:docname="iluminação-01.svg" width="512" height="512.09998" inkscape:version="0.92.4 (f8dce91, 2019-08-02)"><metadata id="metadata25"><rdf:rdf><cc:work rdf:about=""><dc:format>image/svg+xml</dc:format><dc:type rdf:resource="http://purl.org/dc/dcmitype/StillImage"></dc:type></cc:work></rdf:rdf></metadata><defs id="defs23"></defs><sodipodi:namedview pagecolor="#ffffff" bordercolor="#666666" borderopacity="1" objecttolerance="10" gridtolerance="10" guidetolerance="10" inkscape:pageopacity="0" inkscape:pageshadow="2" inkscape:window-width="772" inkscape:window-height="480" id="namedview21" showgrid="false" inkscape:zoom="0.4609375" inkscape:cx="256" inkscape:cy="256.1" inkscape:window-x="64" inkscape:window-y="27" inkscape:window-maximized="0" inkscape:current-layer="Camada_1"></sodipodi:namedview>
<style type="text/css" id="style2">
	.st0{fill:#FFFFFF;}
</style>
<path class="st0" d="m 256.1,0 h -0.3 C 167.8,0.6 94.5,67.5 86,155.1 c -4.1,46.5 6.3,76.5 27.1,115.6 6.4,11.4 13.8,22.2 22,32.4 5.6,7.4 10.9,14.3 15.6,21.8 10.6,16.8 17.4,35.8 19.6,55.6 -11.9,7 -18.4,20.4 -16.5,34 1.9,13.6 11.9,24.7 25.2,28.1 v 35.3 c 0,11.7 6.1,22.6 16,28.8 0.5,0.3 1,0.6 1.6,0.9 5,2.9 10.7,4.4 16.5,4.5 h 85.3 c 18.9,0 34.1,-15.3 34.1,-34.1 v -35.3 c 13.4,-3.4 23.4,-14.5 25.3,-28.2 1.9,-13.7 -4.7,-27.2 -16.7,-34.1 2.3,-19.7 9,-38.7 19.6,-55.5 4.7,-7.4 10,-14.4 15.6,-21.8 8.2,-10.2 15.5,-21 22,-32.4 20.8,-39.1 31.3,-69.1 27.1,-115.6 C 417.3,67.5 344,0.5 256.1,0 Z m -55.3,489.4 c -2.9,-3.1 -4.5,-7.2 -4.5,-11.5 v -34.1 h 82.1 z m 114.9,-11.5 c 0,9.4 -7.6,17.1 -17.1,17.1 H 225 l 87.1,-51.2 h 3.7 v 34.1 z m 8.6,-51.2 H 187.7 c -9.4,0 -17.1,-7.6 -17.1,-17.1 0,-9.5 7.6,-17.1 17.1,-17.1 h 136.5 c 9.4,0 17.1,7.6 17.1,17.1 0,9.5 -7.6,17.1 -17,17.1 z M 221.9,221.9 h -25.6 c -9.4,0 -17.1,-7.6 -17.1,-17.1 0,-9.5 7.6,-17.1 17.1,-17.1 h 8.5 c 9.4,0 17.1,7.6 17.1,17.1 z m 34.1,17 h 17.1 V 375.4 H 239 V 238.9 Z m 127.6,23.7 c -6,10.6 -12.8,20.6 -20.5,30 -5.6,7.3 -11.4,14.9 -16.5,23 -11.5,18.2 -18.9,38.6 -21.8,59.8 H 290.2 V 238.9 h 25.6 c 18.9,0 34.1,-15.3 34.1,-34.1 0,-18.8 -15.3,-34.1 -34.1,-34.1 h -8.5 c -18.9,0 -34.1,15.3 -34.1,34.1 v 17.1 h -34.1 v -17.1 c 0,-18.9 -15.3,-34.1 -34.1,-34.1 h -8.5 c -18.9,0 -34.1,15.3 -34.1,34.1 0,18.8 15.3,34.1 34.1,34.1 h 25.6 V 375.4 H 187 c -2.9,-21.3 -10.3,-41.7 -21.8,-59.8 -5.1,-8.1 -10.9,-15.6 -16.5,-23 -7.6,-9.4 -14.5,-19.5 -20.5,-30 C 108.5,225.6 99.2,199 103,156.6 110.2,77.5 176.5,17 255.9,17 c 79.4,0 145.6,60.5 152.9,139.5 3.7,42.5 -5.6,69.1 -25.2,106.1 z m -93.5,-40.7 v -17.1 c 0,-9.4 7.6,-17.1 17.1,-17.1 h 8.5 c 9.4,0 17.1,7.6 17.1,17.1 0,9.5 -7.6,17.1 -17.1,17.1 z" id="path4" inkscape:connector-curvature="0" style="fill:#ffffff"></path>
<path class="st0" d="m 255.9,34.1 c -70,1.2 -128.3,54.3 -135.9,124 -0.4,4.7 3.1,8.8 7.7,9.3 h 0.8 c 4.4,0 8.1,-3.4 8.5,-7.8 6.6,-60.9 57.6,-107.3 118.8,-108.4 4.7,0 8.5,-3.8 8.5,-8.5 0.2,-4.7 -3.7,-8.6 -8.4,-8.6 z" id="path6" inkscape:connector-curvature="0" style="fill:#ffffff"></path>
<path class="st0" d="m 0,170.7 c 0,4.7 3.8,8.5 8.5,8.5 h 42.7 c 4.7,0 8.5,-3.8 8.5,-8.5 0,-4.7 -3.8,-8.5 -8.5,-8.5 H 8.5 C 3.8,162.1 0,166 0,170.7 Z" id="path8" inkscape:connector-curvature="0" style="fill:#ffffff"></path>
<path class="st0" d="m 74.4,265.7 -37,21.3 c -2.7,1.5 -4.3,4.3 -4.3,7.4 0,3.1 1.6,5.9 4.3,7.4 2.7,1.5 5.9,1.5 8.6,0 l 36.9,-21.3 c 4,-2.4 5.4,-7.6 3.1,-11.6 -2.3,-4 -7.5,-5.5 -11.6,-3.2 z" id="path10" inkscape:connector-curvature="0" style="fill:#ffffff"></path>
<path class="st0" d="m 426,268.8 c -2.4,4.1 -1,9.3 3.1,11.7 l 36.9,21.3 c 4.1,2.3 9.3,0.9 11.6,-3.2 2.3,-4.1 1,-9.3 -3.1,-11.6 l -36.9,-21.3 c -4,-2.4 -9.3,-1 -11.6,3.1 z" id="path12" inkscape:connector-curvature="0" style="fill:#ffffff"></path>
<path class="st0" d="m 503.5,162.1 h -42.7 c -4.7,0 -8.5,3.8 -8.5,8.5 0,4.7 3.8,8.5 8.5,8.5 h 42.7 c 4.7,0 8.5,-3.8 8.5,-8.5 0,-4.6 -3.8,-8.5 -8.5,-8.5 z" id="path14" inkscape:connector-curvature="0" style="fill:#ffffff"></path>
<path class="st0" d="m 477.7,42.7 c -2.4,-4.1 -7.6,-5.5 -11.7,-3.1 l -36.9,21.3 c -2.7,1.5 -4.3,4.3 -4.3,7.4 0,3.1 1.6,5.9 4.3,7.4 2.7,1.5 5.9,1.5 8.6,0 l 36.9,-21.3 c 4.1,-2.4 5.5,-7.7 3.1,-11.7 z" id="path16" inkscape:connector-curvature="0" style="fill:#ffffff"></path>
<path class="st0" d="M 82.9,60.9 46,39.5 c -4.1,-2.3 -9.3,-0.9 -11.6,3.2 -2.3,4.1 -1,9.3 3.1,11.6 l 36.9,21.3 c 2.6,1.6 5.9,1.6 8.6,0 2.7,-1.5 4.3,-4.4 4.3,-7.4 -0.1,-3 -1.7,-5.8 -4.4,-7.3 z" id="path18" inkscape:connector-curvature="0" style="fill:#ffffff"></path>
</svg>