<svg xmlns:dc="http://purl.org/dc/elements/1.1/" xmlns:cc="http://creativecommons.org/ns#" xmlns:rdf="http://www.w3.org/1999/02/22-rdf-syntax-ns#" xmlns:svg="http://www.w3.org/2000/svg" xmlns="http://www.w3.org/2000/svg" xmlns:sodipodi="http://sodipodi.sourceforge.net/DTD/sodipodi-0.dtd" xmlns:inkscape="http://www.inkscape.org/namespaces/inkscape" version="1.1" id="Layer_1" x="0px" y="0px" viewBox="0 0 511.89999 511.89999" xml:space="preserve" sodipodi:docname="externo-01.svg" width="511.89999" height="511.89999" inkscape:version="0.92.4 (f8dce91, 2019-08-02)"><metadata id="metadata63"><rdf:rdf><cc:work rdf:about=""><dc:format>image/svg+xml</dc:format><dc:type rdf:resource="http://purl.org/dc/dcmitype/StillImage"></dc:type></cc:work></rdf:rdf></metadata><defs id="defs61"></defs><sodipodi:namedview pagecolor="#ffffff" bordercolor="#666666" borderopacity="1" objecttolerance="10" gridtolerance="10" guidetolerance="10" inkscape:pageopacity="0" inkscape:pageshadow="2" inkscape:window-width="772" inkscape:window-height="480" id="namedview59" showgrid="false" inkscape:zoom="0.4609375" inkscape:cx="255.9" inkscape:cy="255.9" inkscape:window-x="64" inkscape:window-y="27" inkscape:window-maximized="0" inkscape:current-layer="Layer_1"></sodipodi:namedview>
<style type="text/css" id="style2">
	.st0{fill:#FFFFFF;}
</style>
<g id="g8" transform="translate(-0.1)">
	<g id="g6">
		<path class="st0" d="m 504.5,136.3 c -13.5,0 -24.5,-11 -24.5,-24.5 0,-4.2 -3.4,-7.5 -7.5,-7.5 -4.1,0 -7.5,3.4 -7.5,7.5 0,13.5 -11,24.5 -24.5,24.5 -4.2,0 -7.5,3.4 -7.5,7.5 0,4.1 3.4,7.5 7.5,7.5 13.5,0 24.5,11 24.5,24.5 0,4.2 3.4,7.5 7.5,7.5 4.1,0 7.5,-3.4 7.5,-7.5 0,-13.5 11,-24.5 24.5,-24.5 4.2,0 7.5,-3.4 7.5,-7.5 0,-4.1 -3.4,-7.5 -7.5,-7.5 z m -32.1,16.4 c -2.5,-3.4 -5.5,-6.4 -8.9,-8.9 3.4,-2.5 6.4,-5.5 8.9,-8.9 2.5,3.4 5.5,6.4 8.9,8.9 -3.4,2.5 -6.4,5.5 -8.9,8.9 z" id="path4" inkscape:connector-curvature="0" style="fill:#ffffff"></path>
	</g>
</g>
<g id="g14" transform="translate(-0.1)">
	<g id="g12">
		<path class="st0" d="m 71.6,136.3 c -13.5,0 -24.5,-11 -24.5,-24.5 0,-4.2 -3.4,-7.5 -7.5,-7.5 -4.1,0 -7.5,3.4 -7.5,7.5 0,13.5 -11,24.5 -24.5,24.5 -4.2,0 -7.5,3.4 -7.5,7.5 0,4.1 3.4,7.5 7.5,7.5 13.5,0 24.5,11 24.5,24.5 0,4.2 3.4,7.5 7.5,7.5 4.1,0 7.5,-3.4 7.5,-7.5 0,-13.5 11,-24.5 24.5,-24.5 4.2,0 7.5,-3.4 7.5,-7.5 0,-4.1 -3.3,-7.5 -7.5,-7.5 z m -32,16.4 c -2.5,-3.4 -5.5,-6.4 -8.9,-8.9 3.4,-2.5 6.4,-5.5 8.9,-8.9 2.5,3.4 5.5,6.4 8.9,8.9 -3.4,2.5 -6.5,5.5 -8.9,8.9 z" id="path10" inkscape:connector-curvature="0" style="fill:#ffffff"></path>
	</g>
</g>
<g id="g20" transform="translate(-0.1)">
	<g id="g18">
		<path class="st0" d="m 296.1,40.1 c -18,0 -32.6,-14.6 -32.6,-32.6 0,-4.1 -3.4,-7.5 -7.5,-7.5 -4.1,0 -7.5,3.4 -7.5,7.5 0,18 -14.6,32.6 -32.6,32.6 -4.1,0 -7.5,3.4 -7.5,7.5 0,4.1 3.4,7.5 7.5,7.5 18,0 32.6,14.6 32.6,32.6 0,4.2 3.4,7.5 7.5,7.5 4.2,0 7.5,-3.4 7.5,-7.5 0,-18 14.6,-32.6 32.6,-32.6 4.2,0 7.5,-3.4 7.5,-7.5 0,-4.1 -3.4,-7.5 -7.5,-7.5 z M 256,62 c -3.7,-5.8 -8.6,-10.7 -14.4,-14.4 5.8,-3.7 10.7,-8.7 14.4,-14.4 3.7,5.8 8.6,10.7 14.4,14.4 -5.8,3.7 -10.7,8.6 -14.4,14.4 z" id="path16" inkscape:connector-curvature="0" style="fill:#ffffff"></path>
	</g>
</g>
<g id="g26" transform="translate(-0.1)">
	<g id="g24">
		<path class="st0" d="m 412.5,253.5 -29.2,-82.8 c -2.2,-6.2 -8.1,-10.4 -14.6,-10.4 H 141.4 c -6.6,0 -12.5,4.2 -14.6,10.4 l -29.2,82.8 c -1.7,4.8 2,10 7.1,10 h 300.7 c 2.4,0 4.7,-1.2 6.1,-3.2 1.4,-1.9 1.8,-4.5 1,-6.8 z m -297.3,-5 25.7,-72.8 c 0.1,-0.2 0.3,-0.3 0.5,-0.3 h 227.2 c 0.2,0 0.4,0.1 0.5,0.3 l 25.7,72.8 z" id="path22" inkscape:connector-curvature="0" style="fill:#ffffff"></path>
	</g>
</g>
<g id="g32" transform="translate(-0.1)">
	<g id="g30">
		<path class="st0" d="m 399.3,352.7 c -26.7,0 -47.6,13.9 -47.6,31.6 0,17.7 20.9,31.6 47.6,31.6 26.7,0 47.6,-13.9 47.6,-31.6 0,-17.7 -20.9,-31.6 -47.6,-31.6 z m 0,48.1 c -18.6,0 -32.6,-8.7 -32.6,-16.5 0,-7.8 13.9,-16.5 32.6,-16.5 18.6,0 32.6,8.7 32.6,16.5 0,7.8 -14,16.5 -32.6,16.5 z" id="path28" inkscape:connector-curvature="0" style="fill:#ffffff"></path>
	</g>
</g>
<g id="g38" transform="translate(-0.1)">
	<g id="g36">
		<path class="st0" d="m 110.7,352.7 c -26.7,0 -47.6,13.9 -47.6,31.6 0,17.7 20.9,31.6 47.6,31.6 26.7,0 47.6,-13.9 47.6,-31.6 0,-17.7 -20.9,-31.6 -47.6,-31.6 z m 0,48.1 c -18.6,0 -32.6,-8.7 -32.6,-16.5 0,-7.8 13.9,-16.5 32.6,-16.5 18.7,0 32.6,8.7 32.6,16.5 0,7.8 -13.9,16.5 -32.6,16.5 z" id="path34" inkscape:connector-curvature="0" style="fill:#ffffff"></path>
	</g>
</g>
<g id="g44" transform="translate(-0.1)">
	<g id="g42">
		<path class="st0" d="m 495.5,240.5 h -40.1 c -3.4,0 -6.5,2.3 -7.3,5.7 l -5.3,21.1 -36.9,-104.6 c -5.6,-15.8 -20.6,-26.4 -37.3,-26.4 H 141.4 c -16.7,0 -31.7,10.6 -37.3,26.4 L 67.2,267.3 61.9,246.2 c -0.8,-3.3 -3.8,-5.7 -7.3,-5.7 H 14.5 c -4.1,0 -7.5,3.4 -7.5,7.5 v 32 c 0,4.2 3.4,7.5 7.5,7.5 H 56 l -25.6,35.9 c -4.8,6.8 -7.4,14.7 -7.4,23 v 93.9 c 0,13 6.3,24.6 16,31.8 0,0.1 0,0.2 0,0.3 v 24 c 0,8.6 7,15.5 15.5,15.5 h 48.1 c 8.6,0 15.5,-7 15.5,-15.5 v -16.5 h 273.5 v 16.5 c 0,8.6 7,15.5 15.5,15.5 h 48.1 c 8.6,0 15.5,-7 15.5,-15.5 v -24 c 0,-0.1 0,-0.2 0,-0.3 9.7,-7.2 16,-18.8 16,-31.8 v -93.9 c 0,-8.3 -2.5,-16.3 -7.4,-23 L 454,287.6 h 41.5 c 4.2,0 7.5,-3.4 7.5,-7.5 V 248 c 0,-4.2 -3.4,-7.5 -7.5,-7.5 z M 22,272.5 v -17 h 26.7 l 4.3,17 z m 81.2,224 c 0,0.3 -0.2,0.5 -0.5,0.5 H 54.6 c -0.3,0 -0.5,-0.2 -0.5,-0.5 V 480 h 8.5 40.6 c 0,-0.1 0,16.5 0,16.5 z m 352.7,0 c 0,0.3 -0.2,0.5 -0.5,0.5 h -48.1 c -0.3,0 -0.5,-0.2 -0.5,-0.5 V 480 h 40.6 8.5 z m -8.5,-31.6 H 62.6 c -10.9,0 -20.2,-7.2 -23.4,-17 h 431.5 c -3.1,9.8 -12.4,17 -23.3,17 z M 319.6,383.8 v 17 H 190.4 v -17 z m -128,-15.1 c 3.2,-9.9 12.5,-17 23.4,-17 h 80.2 c 10.9,0 20.2,7.2 23.4,17 z m 128,47.1 v 17 H 190.4 v -17 z m 147.8,-83.6 c 3,4.2 4.6,9.1 4.6,14.3 v 86.4 H 334.7 v -56.6 c 0,-21.8 -17.8,-39.6 -39.6,-39.6 h -80.2 c -21.8,0 -39.6,17.8 -39.6,39.6 v 56.6 H 38.1 v -86.4 c 0,-5.1 1.6,-10.1 4.6,-14.3 l 31.9,-44.6 h 276.7 c 4.2,0 7.5,-3.4 7.5,-7.5 0,-4.1 -3.4,-7.5 -7.5,-7.5 h -270 l 37,-104.9 c 3.5,-9.8 12.8,-16.4 23.1,-16.4 h 227.2 c 10.4,0 19.7,6.6 23.1,16.4 l 37,104.9 h -45.5 c -4.2,0 -7.5,3.4 -7.5,7.5 0,4.1 3.4,7.5 7.5,7.5 h 52.2 z M 488,272.5 h -31 l 4.3,-17 H 488 Z" id="path40" inkscape:connector-curvature="0" style="fill:#ffffff"></path>
	</g>
</g>
<g id="g50" transform="translate(-0.1)">
	<g id="g48">
		<path class="st0" d="M 134.8,328.6 H 86.7 c -4.2,0 -7.5,3.4 -7.5,7.5 0,4.1 3.4,7.5 7.5,7.5 h 48.1 c 4.1,0 7.5,-3.4 7.5,-7.5 0,-4.1 -3.4,-7.5 -7.5,-7.5 z" id="path46" inkscape:connector-curvature="0" style="fill:#ffffff"></path>
	</g>
</g>
<g id="g56" transform="translate(-0.1)">
	<g id="g54">
		<path class="st0" d="m 423.3,328.6 h -48.1 c -4.2,0 -7.5,3.4 -7.5,7.5 0,4.1 3.4,7.5 7.5,7.5 h 48.1 c 4.2,0 7.5,-3.4 7.5,-7.5 0,-4.1 -3.3,-7.5 -7.5,-7.5 z" id="path52" inkscape:connector-curvature="0" style="fill:#ffffff"></path>
	</g>
</g>
</svg>