<svg xmlns:dc="http://purl.org/dc/elements/1.1/" xmlns:cc="http://creativecommons.org/ns#" xmlns:rdf="http://www.w3.org/1999/02/22-rdf-syntax-ns#" xmlns:svg="http://www.w3.org/2000/svg" xmlns="http://www.w3.org/2000/svg" xmlns:sodipodi="http://sodipodi.sourceforge.net/DTD/sodipodi-0.dtd" xmlns:inkscape="http://www.inkscape.org/namespaces/inkscape" id="Layer_1" data-name="Layer 1" viewBox="0 0 503.34 326.97" version="1.1" sodipodi:docname="Motor.svg" width="503.34" height="326.97" inkscape:version="0.92.4 (f8dce91, 2019-08-02)">
  <metadata id="metadata33">
    <rdf:rdf>
      <cc:work rdf:about="">
        <dc:format>image/svg+xml</dc:format>
        <dc:type rdf:resource="http://purl.org/dc/dcmitype/StillImage"></dc:type>
      </cc:work>
    </rdf:rdf>
  </metadata>
  <sodipodi:namedview pagecolor="#ffffff" bordercolor="#666666" borderopacity="1" objecttolerance="10" gridtolerance="10" guidetolerance="10" inkscape:pageopacity="0" inkscape:pageshadow="2" inkscape:window-width="772" inkscape:window-height="461" id="namedview31" showgrid="false" inkscape:zoom="0.4609375" inkscape:cx="251.67" inkscape:cy="162.12" inkscape:window-x="64" inkscape:window-y="27" inkscape:window-maximized="0" inkscape:current-layer="Layer_1"></sodipodi:namedview>
  <defs id="defs4">
    <style id="style2">.cls-1{fill:none;stroke:#fff;stroke-linecap:round;stroke-linejoin:round;stroke-width:13px;}</style>
  </defs>
  <path class="cls-1" d="M 481.02,201.85 H 465.2 v 110.71 h 15.82 a 15.87,15.87 0 0 0 15.82,-15.82 v -79.09 a 15.86,15.86 0 0 0 -15.82,-15.8 z" id="path8" inkscape:connector-curvature="0" style="fill:none;stroke:#ffffff;stroke-width:13px;stroke-linecap:round;stroke-linejoin:round"></path>
  <path class="cls-1" d="M 22.32,265.1 H 38.14 V 138.57 H 22.32 A 15.86,15.86 0 0 0 6.5,154.38 v 94.91 a 15.86,15.86 0 0 0 15.82,15.81 z" id="path10" inkscape:connector-curvature="0" style="fill:none;stroke:#ffffff;stroke-width:13px;stroke-linecap:round;stroke-linejoin:round"></path>
  <path class="cls-1" d="m 394.03,193.93 a 15.87,15.87 0 0 1 -15.82,-15.82 v -31.64 c 0,-8.7 -5,-20.84 -11.18,-27 L 341.94,94.390003 c -6.15,-6.15 -18.3,-11.18 -27,-11.18 H 172.58 c -8.7,0 -20.85,5 -27,11.18 L 120.5,119.47 c -6.15,6.16 -18.3,11.19 -27,11.19 H 85.59 A 15.86,15.86 0 0 0 69.77,146.47 V 257.2 a 15.86,15.86 0 0 0 15.82,15.81 h 7.91 c 8.7,0 20.85,5 27,11.19 l 25.08,25.08 c 6.15,6.15 18.3,11.19 27,11.19 H 401.93 V 193.93 Z" id="path12" inkscape:connector-curvature="0" style="fill:none;stroke:#ffffff;stroke-width:13px;stroke-linecap:round;stroke-linejoin:round"></path>
  <path class="cls-1" d="m 320,117.15 24.67,24.7 a 18.76,18.76 0 0 1 1.95,5.22 v 31" id="path14" inkscape:connector-curvature="0" style="fill:none;stroke:#ffffff;stroke-width:13px;stroke-linecap:round;stroke-linejoin:round"></path>
  <path class="cls-1" d="M 167.52,286.52 142.87,261.85 C 132.65,251.63 116.48,244.02 101.41,241.96" id="path16" inkscape:connector-curvature="0" style="fill:none;stroke:#ffffff;stroke-width:13px;stroke-linecap:round;stroke-linejoin:round"></path>
  <path class="cls-1" d="m 417.75,193.93 h -15.82 v 126.54 h 15.82 a 15.87,15.87 0 0 0 15.82,-15.82 v -94.91 a 15.86,15.86 0 0 0 -15.82,-15.81 z" id="path18" inkscape:connector-curvature="0" style="fill:none;stroke:#ffffff;stroke-width:13px;stroke-linecap:round;stroke-linejoin:round"></path>
  <rect class="cls-1" x="433.57001" y="241.38" width="31.629999" height="31.629999" id="rect20" style="fill:none;stroke:#ffffff;stroke-width:13px;stroke-linecap:round;stroke-linejoin:round"></rect>
  <rect class="cls-1" x="38.139999" y="186.02002" width="31.629999" height="31.629999" id="rect22" style="fill:none;stroke:#ffffff;stroke-width:13px;stroke-linecap:round;stroke-linejoin:round"></rect>
  <rect class="cls-1" x="235.84999" y="47.42001" width="31.629999" height="31.65" id="rect24" style="fill:none;stroke:#ffffff;stroke-width:13px;stroke-linecap:round;stroke-linejoin:round"></rect>
  <path class="cls-1" d="M 307.03,6.5000032 H 196.31 A 15.81,15.81 0 0 0 180.49,22.310003 v 15.82 h 142.36 v -15.82 A 15.81,15.81 0 0 0 307.03,6.5000032 Z" id="path26" inkscape:connector-curvature="0" style="fill:none;stroke:#ffffff;stroke-width:13px;stroke-linecap:round;stroke-linejoin:round"></path>
  <polygon class="cls-1" points="208.55,300.89 240.18,300.89 240.18,356.25 303.45,285.08 271.82,285.08 271.82,229.72 " id="polygon28" style="fill:none;stroke:#ffffff;stroke-width:13px;stroke-linecap:round;stroke-linejoin:round" transform="translate(-4.33,-91.149997)"></polygon>
</svg>