<svg xmlns="http://www.w3.org/2000/svg" xmlns:xlink="http://www.w3.org/1999/xlink" version="1.1" id="Capa_1" x="0px" y="0px" viewBox="0 0 496 496" style="enable-background:new 0 0 496 496;" xml:space="preserve" width="512px" height="512px">
<g>
	<g>
		<path d="M372.416,163.208c11.528-2.944,19.584-13.304,19.584-25.2C392,123.664,380.336,112,365.36,112    c-2.168,0-4.336,0.272-6.432,0.808l-6.928,1.76v-26.16l20.416-5.2C383.944,80.264,392,69.904,392,58.008    C392,43.664,380.336,32,365.36,32c-2.168,0-4.336,0.272-6.432,0.808L352,34.568V0H144v87.592l-20.416,5.2    C112.056,95.736,104,106.096,104,117.992C104,132.336,115.664,144,130.584,144c2.168,0,4.328-0.272,6.424-0.808l6.992-1.776    v26.176l-20.416,5.2c-11.528,2.944-19.584,13.304-19.584,25.2C104,212.336,115.664,224,130.584,224    c2.168,0,4.328-0.272,6.424-0.808l6.992-1.776v26.176l-20.416,5.2c-11.528,2.936-19.584,13.304-19.584,25.2    C104,292.336,115.664,304,130.584,304c2.16,0,4.304-0.264,6.424-0.808l6.992-1.776v26.176l-20.416,5.208    C112.056,335.736,104,346.096,104,357.992C104,372.336,115.664,384,130.584,384c2.16,0,4.304-0.264,6.424-0.808l6.992-1.776    v26.176l-20.416,5.208C112.056,415.736,104,426.096,104,437.992C104,452.336,115.664,464,130.584,464    c2.16,0,4.304-0.264,6.424-0.808l6.992-1.776V496h208v-87.592l20.416-5.2c11.528-2.944,19.584-13.304,19.584-25.2    C392,363.664,380.336,352,365.36,352c-2.16,0-4.312,0.264-6.432,0.808l-6.928,1.76V328.4l20.416-5.2    C383.944,320.264,392,309.904,392,298.008C392,283.664,380.336,272,365.36,272c-2.16,0-4.312,0.264-6.416,0.8L352,274.568v-26.16    l20.416-5.2c11.528-2.944,19.584-13.304,19.584-25.2C392,203.664,380.336,192,365.36,192c-2.168,0-4.336,0.272-6.432,0.808    l-6.928,1.76v-26.16L372.416,163.208z M160,16h176v22.648L160,83.512V16z M133.056,127.688c-0.808,0.208-1.64,0.312-3.048,0.312    c-5.512,0-10.008-4.488-10.008-10.008c0-4.576,3.104-8.568,7.536-9.696L362.88,48.312c0.808-0.208,1.64-0.312,3.112-0.312    C371.504,48,376,52.488,376,58.008c0,4.576-3.104,8.568-7.536,9.696L133.056,127.688z M336,480H160v-22.664l176-44.856V480z     M362.864,368.312c0.816-0.208,1.656-0.312,3.128-0.312c5.512,0,10.008,4.496,10.008,10.008c0,4.576-3.104,8.56-7.536,9.696    l-235.392,59.984c-0.816,0.208-1.648,0.312-3.064,0.312c-5.512,0-10.008-4.496-10.008-10.008c0-4.576,3.104-8.56,7.536-9.696    l50.44-12.856l-3.952-15.504L160,403.512v-26.176l176-44.856v26.168l-145.976,37.208l3.952,15.504L362.864,368.312z     M362.88,288.304c0.816-0.2,1.648-0.304,3.112-0.304c5.512,0,10.008,4.496,10.008,10.008c0,4.576-3.104,8.56-7.536,9.696    l-235.392,59.984c-0.816,0.208-1.648,0.312-3.064,0.312c-5.512,0-10.008-4.496-10.008-10.008c0-4.576,3.104-8.56,7.536-9.696    L362.88,288.304z M160,323.512v-26.176l176-44.848v26.16L160,323.512z M362.88,208.312c0.808-0.208,1.64-0.312,3.112-0.312    c5.512,0,10.008,4.488,10.008,10.008c0,4.576-3.104,8.568-7.536,9.696l-235.392,59.984c-0.816,0.208-1.648,0.312-3.064,0.312    c-5.512,0-10.008-4.496-10.008-10.008c0-4.576,3.104-8.56,7.536-9.696L362.88,208.312z M160,243.512v-26.176l176-44.848v26.16    L160,243.512z M133.056,207.688c-0.808,0.208-1.64,0.312-3.048,0.312c-5.512,0-10.008-4.488-10.008-10.008    c0-4.576,3.104-8.568,7.536-9.696l178.44-45.48l-3.952-15.504L160,163.512v-26.176l176-44.848v26.16l-17.976,4.584l3.952,15.504    l40.904-10.432c0.808-0.2,1.64-0.304,3.112-0.304c5.512,0,10.008,4.488,10.008,10.008c0,4.576-3.104,8.568-7.536,9.696    L133.056,207.688z" fill="#FFFFFF"></path>
	</g>
</g>
<g>
</g>
<g>
</g>
<g>
</g>
<g>
</g>
<g>
</g>
<g>
</g>
<g>
</g>
<g>
</g>
<g>
</g>
<g>
</g>
<g>
</g>
<g>
</g>
<g>
</g>
<g>
</g>
<g>
</g>
</svg>